inDegrees=yes
nColumns=22
nRows=13
DataType=double
version=3
OpenSimVersion=4.5
endheader
time	pelvis_tilt	pelvis_list	pelvis_rotation	pelvis_tx	pelvis_ty	pelvis_tz	hip_flexion_r	hip_adduction_r	hip_rotation_r	knee_angle_r	ankle_angle_r	mtp_angle_r	hip_flexion_l	hip_adduction_l	hip_rotation_l	knee_angle_l	ankle_angle_l	mtp_angle_l	lumbar_extension	lumbar_bending	lumbar_rotation
0.7566011986073482	-4.722754944564902	4.415588854476438	-5.165871851643343	0.8543284691302628	0.9438718530536155	-0.02780642657677329	8.304462464233838	-12.18432288719499	-9.694346527497801	-58.32445122858924	-11.55769367871485	0	22.74895566540237	2.580076354588675	-24.7645333397369	-15.19378509258545	2.435692820936656	0	-0.7582986395858424	-7.041346121214874	8.918016790429286
0.768064853131702	-4.613730404061972	4.536819181767784	-4.913270815334263	0.8675814405924391	0.9459766641751098	-0.0298793838124881	10.35768346444035	-12.54910687601935	-8.933474966943095	-60.89888845347701	-10.77188093386168	0	21.42394225284237	3.16839203700694	-24.70629481772377	-14.4781209595952	3.022808385611866	0	-0.884706282816321	-7.188307367863844	8.427727721086336
0.7795285076560557	-4.455025687034872	4.563421703720826	-4.688565844891672	0.8804772855153971	0.9482525211285826	-0.03177502577398882	12.39545967987129	-12.71419358525037	-8.218557282709313	-63.03148574929762	-9.544078801736859	0	19.99862856666152	3.667026920080164	-24.59152177322459	-13.63588291123076	3.519122419651265	0	-1.107748748776881	-7.225093279744107	7.920637587677695
0.7909921621804095	-4.24047159649904	4.494441774242897	-4.489514682733561	0.893035382659914	0.9506840594678891	-0.03354554744840633	14.41694314132883	-12.70611534461986	-7.588416792500479	-64.75475505167203	-8.077810624679563	0	18.47580756975762	4.073561519711729	-24.42077046884728	-12.68871101426509	3.941599802852641	0	-1.433582499388766	-7.140883719320145	7.398519624015018
0.8024558167047633	-3.969955039380649	4.340043914733445	-4.309852692373933	0.9052744522466785	0.9532249783785809	-0.03523048538955324	16.41464152162999	-12.55888945115906	-7.078915036327267	-66.09168056435347	-6.41952728183674	0	16.87660043869187	4.39047390370242	-24.2013240145808	-11.68171437919878	4.315036633099887	0	-1.861051261488565	-6.942207720327755	6.8643774584423
0.813919471229117	-3.649026017856754	4.117922915739143	-4.140524560445547	0.9172183708158013	0.9558107706501552	-0.03685199616644052	18.37382118918275	-12.3080014965847	-6.716260181073684	-67.03547932335057	-4.664504144759184	0	15.23417521232965	4.624139572479929	-23.94498060029127	-10.66959913406771	4.655005523677974	0	-2.38146872677388	-6.64896501856345	6.319437258957378
0.8253831257534707	-3.287827549195429	3.856736725656074	-3.97250793761288	0.9289184115274838	0.958367700770272	-0.03841988742036231	20.26941720909357	-11.99635820312426	-6.516253515084968	-67.55663829796192	-2.858266214502557	0	13.57477125327942	4.796404038832578	-23.66646806962545	-9.684804961635706	4.972631245907301	0	-2.975269903317949	-6.296118154759278	5.762315339285298
0.8368467802778246	-2.899615989859302	3.580892735119783	-3.800160773552546	0.9404430867094116	0.9608161423263883	-0.03993555993629314	22.07626295021406	-11.65803079672673	-6.483490321804656	-67.6338007276311	-1.024426953150403	0	11.91738715734892	4.928452865478064	-23.37423860883286	-8.745395891278202	5.294604319059778	0	-3.61583470157931	-5.913715626235847	5.193371866081445
0.8483104348021783	-2.499277650040787	3.307620752587972	-3.621015526320897	0.9518661465188145	0.9630825716676353	-0.041392896470849	23.76439542398951	-11.31412686927658	-6.614757790215409	-67.23577248992991	0.831809246747287	0	10.27548234072653	5.036335209250002	-23.07524289627698	-7.856119989577301	5.640060954896326	0	-4.274301897476803	-5.523826971366136	4.615366024052397
0.8597740893265321	-2.101518566130917	3.043364788858204	-3.431709219184128	0.9632743820332221	0.9651279152142849	-0.04278567351724195	25.27343739025837	-10.96870169788742	-6.909788009518593	-66.24394905801627	2.597440778646706	0	8.654280659820699	5.127922768835552	-22.77298676946864	-7.000312455207526	5.977301684551694	0	-4.921617016387835	-5.136418463267977	4.030967724719535
0.8712377438508858	-1.719196321136736	2.796477674588171	-3.230539761330647	0.9747274584202972	0.9669150499827871	-0.04409918657683762	26.56703967482153	-10.62525402368654	-7.359404884214096	-64.61063973550569	4.123991606206986	0	7.064345601831557	5.210492094117673	-22.46673397131622	-6.174883581393521	6.286855401116983	0	-5.534044643532536	-4.765012601783571	3.442391453763647
0.8827013983752395	-1.362277759630527	2.573288107461258	-3.014544934418829	0.986262280751381	0.9684085745407424	-0.04529250875583378	27.62787890065342	-10.2684930916989	-7.936537706028137	-62.35679176961006	5.329896027190824	0	5.52087707970595	5.28536752409443	-22.14834613980116	-5.39506877911511	6.58000478982101	0	-6.094349974243661	-4.425741892840647	2.846968588048564
0.8941650528995934	-1.036564683326195	2.378208657035591	-2.783174982888029	0.9979050147249851	0.969584493949312	-0.04634231735210814	28.4446994350448	-9.886689479887083	-8.613537443624489	-59.51145204558102	6.147824355288596	0	4.033804001684145	5.353545820214858	-21.81354895945774	-4.674493727459426	6.874327091728964	0	-6.592468889873851	-4.128514920442871	2.245025218728897
